<svg xmlns="http://www.w3.org/2000/svg" viewBox="0 0 26 19" width="156" height="114" shape-rendering="crispEdges">
  <title>Hippocampus</title>
  <g fill="#17130f"><rect x="6" y="0" width="4" height="1"/><rect x="12" y="0" width="5" height="1"/><rect x="4" y="1" width="2" height="1"/><rect x="10" y="1" width="2" height="1"/><rect x="17" y="1" width="4" height="1"/><rect x="3" y="2" width="1" height="1"/><rect x="21" y="2" width="2" height="1"/><rect x="2" y="3" width="1" height="1"/><rect x="6" y="3" width="3" height="1"/><rect x="15" y="3" width="3" height="1"/><rect x="23" y="3" width="1" height="1"/><rect x="1" y="4" width="1" height="1"/><rect x="9" y="4" width="1" height="1"/><rect x="14" y="4" width="1" height="1"/><rect x="19" y="4" width="1" height="1"/><rect x="24" y="4" width="1" height="1"/><rect x="1" y="5" width="1" height="1"/><rect x="10" y="5" width="1" height="1"/><rect x="14" y="5" width="1" height="1"/><rect x="20" y="5" width="1" height="1"/><rect x="25" y="5" width="1" height="1"/><rect x="0" y="6" width="1" height="1"/><rect x="4" y="6" width="3" height="1"/><rect x="16" y="6" width="2" height="1"/><rect x="25" y="6" width="1" height="1"/><rect x="0" y="7" width="1" height="1"/><rect x="18" y="7" width="1" height="1"/><rect x="25" y="7" width="1" height="1"/><rect x="0" y="8" width="1" height="1"/><rect x="19" y="8" width="1" height="1"/><rect x="25" y="8" width="1" height="1"/><rect x="0" y="9" width="1" height="1"/><rect x="10" y="9" width="6" height="1"/><rect x="20" y="9" width="1" height="1"/><rect x="25" y="9" width="1" height="1"/><rect x="0" y="10" width="1" height="1"/><rect x="16" y="10" width="4" height="1"/><rect x="25" y="10" width="1" height="1"/><rect x="1" y="11" width="1" height="1"/><rect x="21" y="11" width="4" height="1"/><rect x="1" y="12" width="1" height="1"/><rect x="20" y="12" width="1" height="1"/><rect x="25" y="12" width="1" height="1"/><rect x="2" y="13" width="1" height="1"/><rect x="19" y="13" width="1" height="1"/><rect x="25" y="13" width="1" height="1"/><rect x="3" y="14" width="2" height="1"/><rect x="16" y="14" width="4" height="1"/><rect x="24" y="14" width="1" height="1"/><rect x="5" y="15" width="8" height="1"/><rect x="16" y="15" width="1" height="1"/><rect x="19" y="15" width="5" height="1"/><rect x="12" y="16" width="1" height="1"/><rect x="15" y="16" width="1" height="1"/><rect x="12" y="17" width="1" height="1"/><rect x="14" y="17" width="1" height="1"/><rect x="13" y="18" width="2" height="1"/></g>
  <g fill="#e3a047"><rect x="6" y="1" width="4" height="1"/><rect x="12" y="1" width="5" height="1"/><rect x="4" y="2" width="17" height="1"/><rect x="3" y="3" width="3" height="1"/><rect x="9" y="3" width="6" height="1"/><rect x="18" y="3" width="5" height="1"/><rect x="2" y="4" width="7" height="1"/><rect x="10" y="4" width="4" height="1"/><rect x="15" y="4" width="4" height="1"/><rect x="20" y="4" width="4" height="1"/><rect x="2" y="5" width="8" height="1"/><rect x="11" y="5" width="3" height="1"/><rect x="15" y="5" width="5" height="1"/><rect x="21" y="5" width="4" height="1"/><rect x="1" y="6" width="3" height="1"/><rect x="7" y="6" width="9" height="1"/><rect x="18" y="6" width="7" height="1"/></g>
  <g fill="#d07850"><rect x="1" y="7" width="17" height="1"/><rect x="19" y="7" width="6" height="1"/><rect x="1" y="8" width="2" height="1"/><rect x="5" y="8" width="1" height="1"/><rect x="8" y="8" width="11" height="1"/><rect x="20" y="8" width="5" height="1"/><rect x="1" y="9" width="2" height="1"/><rect x="5" y="9" width="1" height="1"/><rect x="8" y="9" width="2" height="1"/><rect x="16" y="9" width="4" height="1"/><rect x="21" y="9" width="4" height="1"/><rect x="1" y="10" width="15" height="1"/><rect x="20" y="10" width="5" height="1"/><rect x="2" y="11" width="19" height="1"/></g>
  <g fill="#a3573a"><rect x="2" y="12" width="18" height="1"/><rect x="21" y="12" width="4" height="1"/><rect x="3" y="13" width="16" height="1"/><rect x="20" y="13" width="5" height="1"/><rect x="5" y="14" width="11" height="1"/><rect x="20" y="14" width="4" height="1"/><rect x="13" y="15" width="3" height="1"/><rect x="13" y="16" width="2" height="1"/><rect x="13" y="17" width="1" height="1"/></g>
  <g fill="#fff6ea"><rect x="3" y="8" width="1" height="1"/><rect x="6" y="8" width="1" height="1"/></g>
  <g fill="#17130f"><rect x="4" y="8" width="1" height="1"/><rect x="7" y="8" width="1" height="1"/><rect x="3" y="9" width="2" height="1"/><rect x="6" y="9" width="2" height="1"/></g>
  <g fill="#d07850" opacity="0"><rect x="3" y="8" width="1" height="1"/><rect x="6" y="8" width="1" height="1"/><rect x="4" y="8" width="1" height="1"/><rect x="7" y="8" width="1" height="1"/><rect x="3" y="9" width="2" height="1"/><rect x="6" y="9" width="2" height="1"/><animate attributeName="opacity" values="0;1" keyTimes="0;0.8571" calcMode="discrete" dur="6.3s" repeatCount="indefinite"/></g>
</svg>
